<?xml version="1.0" encoding="UTF-8"?><svg xmlns="http://www.w3.org/2000/svg" xmlns:xlink="http://www.w3.org/1999/xlink" height="107.9" preserveAspectRatio="xMidYMid meet" version="1.0" viewBox="46.0 46.1 108.0 107.9" width="108.0" zoomAndPan="magnify"><g id="change1_1"><path d="M89.5,129h7c0.8,0,1.5-0.7,1.5-1.5s-0.7-1.5-1.5-1.5h-7c-0.8,0-1.5,0.7-1.5,1.5S88.7,129,89.5,129z" fill="inherit"/><path d="M103.5,129h7c0.8,0,1.5-0.7,1.5-1.5s-0.7-1.5-1.5-1.5h-7c-0.8,0-1.5,0.7-1.5,1.5S102.7,129,103.5,129z" fill="inherit"/><path d="M72.5,97c0.8,0,1.5-0.7,1.5-1.5v-7c0-0.8-0.7-1.5-1.5-1.5S71,87.7,71,88.5v7C71,96.3,71.7,97,72.5,97z" fill="inherit"/><path d="M124.5,126h-7c-0.8,0-1.5,0.7-1.5,1.5s0.7,1.5,1.5,1.5h7c0.8,0,1.5-0.7,1.5-1.5S125.3,126,124.5,126z" fill="inherit"/><path d="M71,67.5c0,0.8,0.7,1.5,1.5,1.5s1.5-0.7,1.5-1.5v-7c0-0.8-0.7-1.5-1.5-1.5S71,59.7,71,60.5V67.5z" fill="inherit"/><path d="M72.5,125c0.8,0,1.5-0.7,1.5-1.5v-7c0-0.8-0.7-1.5-1.5-1.5s-1.5,0.7-1.5,1.5v7C71,124.3,71.7,125,72.5,125z" fill="inherit"/><path d="M138.5,126h-7c-0.8,0-1.5,0.7-1.5,1.5s0.7,1.5,1.5,1.5h7c0.8,0,1.5-0.7,1.5-1.5S139.3,126,138.5,126z" fill="inherit"/><path d="M75.5,129h7c0.8,0,1.5-0.7,1.5-1.5s-0.7-1.5-1.5-1.5h-7c-0.8,0-1.5,0.7-1.5,1.5S74.7,129,75.5,129z" fill="inherit"/><path d="M72.5,111c0.8,0,1.5-0.7,1.5-1.5v-7c0-0.8-0.7-1.5-1.5-1.5s-1.5,0.7-1.5,1.5v7C71,110.3,71.7,111,72.5,111z" fill="inherit"/><path d="M154,127.5v-80c0-0.2,0-0.4-0.1-0.5c0,0,0,0,0,0c-0.2-0.4-0.4-0.7-0.8-0.8c0,0,0,0,0,0c-0.2-0.1-0.4-0.1-0.5-0.1h-80 c-0.2,0-0.4,0-0.5,0.1c0,0,0,0,0,0c-0.2,0.1-0.4,0.2-0.5,0.3l-25,25c-0.1,0.1-0.3,0.3-0.3,0.5c0,0,0,0,0,0C46,72.1,46,72.3,46,72.5 v80c0,0.8,0.7,1.5,1.5,1.5h80c0.2,0,0.4,0,0.5-0.1c0,0,0,0,0,0c0.2-0.1,0.4-0.2,0.5-0.3l25-25c0.1-0.1,0.3-0.3,0.3-0.5c0,0,0,0,0,0 C154,127.9,154,127.7,154,127.5z M72.5,55c0.8,0,1.5-0.7,1.5-1.5V49h74.9l-22,22H51.1L71,51.1v2.4C71,54.3,71.7,55,72.5,55z M53.8,146.2c-0.6-0.6-1.5-0.6-2.1,0l-2.6,2.6V74h22.1C71,74.2,71,74.3,71,74.5v7c0,0.8,0.7,1.5,1.5,1.5s1.5-0.7,1.5-1.5v-7 c0-0.2,0-0.3-0.1-0.5H126v53.5V151H51.1l2.6-2.6C54.3,147.8,54.3,146.8,53.8,146.2z M129,73.1l22-22V126h-5.5 c-0.8,0-1.5,0.7-1.5,1.5s0.7,1.5,1.5,1.5h3.4L129,148.9V73.1z" fill="inherit"/><path d="M57.7,143.8c0.4,0,0.8-0.1,1.1-0.4l4.9-5c0.6-0.6,0.6-1.5,0-2.1s-1.5-0.6-2.1,0l-4.9,5c-0.6,0.6-0.6,1.5,0,2.1 C56.9,143.7,57.3,143.8,57.7,143.8z" fill="inherit"/><path d="M67.6,134c0.4,0,0.8-0.1,1.1-0.4l4.9-5c0.3-0.3,0.4-0.7,0.4-1.1s-0.1-0.8-0.4-1.1c-0.6-0.6-1.5-0.6-2.1,0l-4.9,5 c-0.6,0.6-0.6,1.5,0,2.1C66.8,133.8,67.2,134,67.6,134z" fill="inherit"/></g></svg>