<?xml version="1.0" encoding="UTF-8"?><svg xmlns="http://www.w3.org/2000/svg" xmlns:xlink="http://www.w3.org/1999/xlink" height="480.0" preserveAspectRatio="xMidYMid meet" version="1.0" viewBox="16.0 16.0 480.0 480.0" width="480.0" zoomAndPan="magnify"><linearGradient gradientUnits="userSpaceOnUse" id="a" x1="60.21" x2="451.79" xlink:actuate="onLoad" xlink:show="other" xlink:type="simple" xmlns:xlink="http://www.w3.org/1999/xlink" y1="419.79" y2="28.21"><stop offset="0" stop-color="#5ebce5"/><stop offset=".523" stop-color="#b678e6"/><stop offset="1" stop-color="#e25b61"/></linearGradient><path d="M468,56H345.706l-16.167-16.167c-2.595-2.596-6.625-3.092-9.773-1.203l-19.918,11.951 c-4.646-2.388-9.48-4.392-14.454-5.989l-5.633-22.533c-0.89-3.561-4.09-6.06-7.761-6.06h-32c-3.671,0-6.871,2.499-7.761,6.06 l-5.633,22.533c-4.973,1.598-9.808,3.601-14.454,5.989L192.234,38.63c-3.147-1.888-7.177-1.394-9.773,1.203L166.294,56H44 c-15.439,0-28,12.561-28,28v280c0,15.439,12.561,28,28,28h166.881c-2.74,14.147-9.633,27.438-20.315,38.12l-1.88,1.88h-10.822 c-14.134,0-26.634,9.009-31.104,22.418L139.234,477c-1.463,4.39-0.722,9.252,1.984,13.006c2.706,3.753,7.083,5.995,11.71,5.995 h206.143c4.627,0,9.005-2.241,11.71-5.995c2.706-3.754,3.447-8.616,1.984-13.006l-7.527-22.581 C360.769,441.009,348.27,432,334.135,432h-10.822l-1.88-1.88c-10.681-10.681-17.549-23.973-20.277-38.12H468 c15.439,0,28-12.561,28-28V84C496,68.561,483.439,56,468,56z M186.657,87.847l-11.093-18.489l13.794-13.794l18.489,11.093 c2.495,1.497,5.606,1.521,8.125,0.063c6.065-3.513,12.575-6.21,19.347-8.017c2.811-0.75,4.993-2.967,5.699-5.789L246.246,32h19.508 l5.228,20.914c0.706,2.822,2.888,5.039,5.699,5.789c6.772,1.807,13.282,4.504,19.347,8.017c2.518,1.458,5.629,1.434,8.125-0.063 l18.489-11.093l13.794,13.794l-11.094,18.489c-1.498,2.496-1.521,5.607-0.063,8.126c3.514,6.066,6.211,12.575,8.018,19.346 c0.75,2.811,2.967,4.994,5.789,5.699L360,126.246v19.508l-20.914,5.228c-2.822,0.706-5.04,2.888-5.789,5.699 c-1.807,6.771-4.504,13.28-8.018,19.346c-1.458,2.519-1.435,5.63,0.063,8.126l11.094,18.489l-13.794,13.794l-18.489-11.093 c-2.496-1.498-5.607-1.521-8.125-0.063c-6.065,3.513-12.575,6.21-19.347,8.017c-2.811,0.75-4.993,2.967-5.699,5.789L265.754,240 h-19.508l-5.228-20.914c-0.706-2.822-2.888-5.039-5.699-5.789c-6.772-1.807-13.282-4.504-19.347-8.017 c-2.519-1.458-5.63-1.435-8.125,0.063l-18.489,11.093l-13.794-13.794l11.093-18.489c1.498-2.496,1.521-5.607,0.063-8.125 c-3.513-6.065-6.21-12.575-8.017-19.347c-0.75-2.811-2.967-4.993-5.789-5.699L152,145.754v-19.508l20.914-5.228 c2.822-0.706,5.039-2.888,5.789-5.699c1.807-6.772,4.504-13.282,8.017-19.347C188.179,93.454,188.155,90.342,186.657,87.847z M367.288,160.424l1.196,4.783c0.706,2.823,2.888,5.04,5.699,5.79c4.641,1.238,9.104,3.087,13.263,5.496 c2.518,1.458,5.629,1.434,8.125-0.063l11.676-7.006l7.329,7.329l-7.006,11.676c-1.497,2.496-1.521,5.607-0.063,8.125 c2.409,4.159,4.258,8.622,5.496,13.263c0.75,2.811,2.967,4.994,5.79,5.699L432,218.817v10.365l-13.207,3.301 c-2.823,0.706-5.04,2.888-5.79,5.699c-1.238,4.641-3.087,9.104-5.496,13.263c-1.458,2.518-1.434,5.63,0.063,8.125l7.006,11.676 l-7.329,7.329l-11.676-7.006c-2.496-1.498-5.607-1.521-8.125-0.063c-4.159,2.409-8.622,4.258-13.263,5.496 c-2.811,0.75-4.994,2.967-5.699,5.79L365.183,296h-10.365l-3.301-13.207c-0.706-2.823-2.888-5.04-5.699-5.79 c-4.641-1.238-9.104-3.087-13.263-5.496c-2.519-1.459-5.63-1.435-8.125,0.063l-11.676,7.006l-7.329-7.329l7.006-11.676 c1.497-2.496,1.521-5.607,0.063-8.125c-2.409-4.159-4.258-8.622-5.496-13.263c-0.75-2.811-2.967-4.994-5.79-5.699L288,229.183 v-2.671c4.057-1.434,8.019-3.125,11.848-5.093l12.397,7.438C314.687,253.052,335.172,272,360,272c26.467,0,48-21.533,48-48 s-21.533-48-48-48c-6.569,0-12.827,1.337-18.53,3.742c2.365-4.613,4.353-9.412,5.938-14.348L367.288,160.424z M352.167,209.539 c2.596-2.596,3.092-6.625,1.203-9.773l-3.634-6.056c3.225-1.098,6.672-1.71,10.264-1.71c17.645,0,32,14.355,32,32s-14.355,32-32,32 c-14.705,0-27.116-9.973-30.847-23.507c0.127-0.112,0.265-0.205,0.386-0.326L352.167,209.539z M88.493,243.446 c-2.409-4.159-4.258-8.622-5.496-13.263c-0.75-2.811-2.967-4.994-5.79-5.699L64,221.183v-10.365l13.207-3.301 c2.823-0.706,5.04-2.888,5.79-5.699c1.238-4.641,3.087-9.104,5.496-13.263c1.458-2.518,1.434-5.63-0.063-8.125l-7.006-11.676 l7.329-7.329l11.676,7.006c2.495,1.497,5.606,1.521,8.125,0.063c4.159-2.409,8.622-4.258,13.263-5.496 c2.811-0.75,4.994-2.967,5.699-5.79L130.817,144H136v8c0,3.671,2.499,6.871,6.06,7.761l22.533,5.633 c1.598,4.973,3.601,9.808,5.989,14.454l-1.109,1.848C160.822,173.241,149.024,168,136,168c-26.467,0-48,21.533-48,48 s21.533,48,48,48c21.149,0,39.135-13.753,45.511-32.784l0.95,0.95c1.427,1.427,3.289,2.194,5.199,2.305 c-1.11,3.107-2.495,6.114-4.152,8.975c-1.458,2.518-1.434,5.63,0.063,8.125l7.006,11.676l-7.329,7.329l-11.676-7.006 c-2.496-1.498-5.607-1.521-8.125-0.063c-4.159,2.409-8.622,4.258-13.263,5.496c-2.811,0.75-4.994,2.967-5.699,5.79L141.183,288 h-10.365l-3.301-13.207c-0.706-2.823-2.888-5.04-5.699-5.79c-4.641-1.238-9.104-3.087-13.263-5.496 c-2.519-1.459-5.63-1.435-8.125,0.063l-11.676,7.006l-7.329-7.329l7.006-11.676C89.927,249.076,89.951,245.964,88.493,243.446z M159.833,209.539l8.123,8.123C167.089,234.538,153.087,248,136,248c-17.645,0-32-14.355-32-32s14.355-32,32-32 c10.064,0,19.04,4.683,24.907,11.971l-2.277,3.795C156.742,202.914,157.238,206.943,159.833,209.539z M44,72h114.516 c0.043,0.077,0.069,0.158,0.115,0.234l11.951,19.918c-2.388,4.646-4.392,9.48-5.989,14.454l-22.533,5.633 c-3.561,0.89-6.06,4.09-6.06,7.761v8h-11.429c-3.671,0-6.871,2.499-7.761,6.06l-3.718,14.875c-2.841,0.97-5.619,2.121-8.314,3.445 l-13.149-7.89c-3.148-1.889-7.177-1.394-9.773,1.203l-16.163,16.163c-2.596,2.596-3.092,6.625-1.203,9.773l7.89,13.149 c-1.324,2.695-2.475,5.473-3.445,8.314L54.06,196.81c-3.562,0.89-6.06,4.09-6.06,7.761v22.857c0,3.671,2.499,6.871,6.06,7.761 l14.875,3.718c0.97,2.841,2.121,5.619,3.445,8.314l-7.89,13.149c-1.889,3.148-1.393,7.177,1.203,9.773l16.163,16.163 c2.596,2.596,6.625,3.091,9.773,1.203l13.149-7.89c2.695,1.324,5.473,2.475,8.314,3.445l3.718,14.875 c0.89,3.562,4.09,6.06,7.761,6.06h22.857c3.671,0,6.871-2.499,7.761-6.06l3.718-14.875c2.841-0.97,5.619-2.121,8.314-3.445 l13.149,7.89c3.147,1.888,7.177,1.394,9.773-1.203l16.163-16.163c2.596-2.596,3.092-6.625,1.203-9.773l-7.89-13.149 c1.324-2.695,2.475-5.473,3.445-8.314l14.875-3.718c3.562-0.89,6.06-4.09,6.06-7.761v-0.918c0.866,0.306,1.731,0.615,2.606,0.897 l5.633,22.533c0.89,3.561,4.09,6.06,7.761,6.06h32c3.671,0,6.871-2.499,7.761-6.06l1.488-5.953l11.685,2.921 c0.97,2.841,2.121,5.619,3.445,8.314l-7.89,13.149c-1.889,3.148-1.393,7.177,1.203,9.773l16.163,16.163 c2.596,2.596,6.625,3.092,9.773,1.203l13.149-7.89c2.695,1.324,5.473,2.475,8.314,3.445l3.718,14.875 c0.89,3.562,4.09,6.06,7.761,6.06h22.857c3.671,0,6.871-2.499,7.761-6.06l3.718-14.875c2.841-0.97,5.619-2.121,8.314-3.445 l13.149,7.89c3.148,1.888,7.177,1.394,9.773-1.203l16.163-16.163c2.596-2.596,3.092-6.625,1.203-9.773l-7.89-13.149 c1.324-2.695,2.475-5.473,3.445-8.314l14.875-3.718c3.562-0.89,6.06-4.09,6.06-7.761v-22.857c0-3.671-2.499-6.871-6.06-7.761 l-14.875-3.718c-0.97-2.841-2.121-5.619-3.445-8.314l7.89-13.149c1.889-3.148,1.393-7.177-1.203-9.773l-16.163-16.163 c-2.597-2.596-6.626-3.093-9.773-1.203l-13.149,7.89c-2.695-1.324-5.473-2.475-8.314-3.445l-3.718-14.875 c-0.481-1.926-1.648-3.528-3.19-4.603V120c0-3.671-2.499-6.871-6.06-7.761l-22.533-5.633c-1.597-4.973-3.601-9.808-5.99-14.454 l11.952-19.918c0.045-0.076,0.072-0.157,0.115-0.234H468c6.617,0,12,5.383,12,12v244H32V84C32,77.383,37.383,72,44,72z M350.06,459.478L356.9,480H155.1l6.84-20.522c2.289-6.865,8.688-11.478,15.925-11.478h156.271 C341.372,448,347.771,452.613,350.06,459.478z M301.897,432h-91.835c9.02-11.894,14.822-25.624,17.093-40h57.725 C287.142,406.369,292.894,420.108,301.897,432z M468,376H44c-6.617,0-12-5.383-12-12v-20h448v20C480,370.617,474.617,376,468,376z M304,360c0,4.418-3.582,8-8,8h-80c-4.418,0-8-3.582-8-8s3.582-8,8-8h80C300.418,352,304,355.582,304,360z M464,360 c0,4.418-3.582,8-8,8h-16c-4.418,0-8-3.582-8-8s3.582-8,8-8h16C460.418,352,464,355.582,464,360z M424,360c0,4.418-3.582,8-8,8h-16 c-4.418,0-8-3.582-8-8s3.582-8,8-8h16C420.418,352,424,355.582,424,360z M384,360c0,4.418-3.582,8-8,8h-16c-4.418,0-8-3.582-8-8 s3.582-8,8-8h16C380.418,352,384,355.582,384,360z M64.02,360c0,4.418-3.582,8-8,8s-8.005-3.582-8.005-8s3.577-8,7.995-8h0.01 C60.438,352,64.02,355.582,64.02,360z M88.02,360c0,4.418-3.582,8-8,8s-8.005-3.582-8.005-8s3.577-8,7.995-8h0.01 C84.438,352,88.02,355.582,88.02,360z M112.02,360c0,4.418-3.582,8-8,8s-8.005-3.582-8.005-8s3.577-8,7.995-8h0.01 C108.438,352,112.02,355.582,112.02,360z M256,200c35.29,0,64-28.71,64-64s-28.71-64-64-64s-64,28.71-64,64S220.71,200,256,200z M256,88c26.467,0,48,21.533,48,48s-21.533,48-48,48s-48-21.533-48-48S229.533,88,256,88z" fill="url(#a)"/></svg>